<?xml version="1.0" encoding="utf-8"?>
<svg id="master-artboard" viewBox="0 0 900 900" version="1.1" xmlns="http://www.w3.org/2000/svg" x="0px" y="0px" style="enable-background:new 0 0 336 235.2;" width="900px" height="900px"><rect id="ee-background" x="0" y="0" width="900" height="900" style="fill: white; fill-opacity: 0; pointer-events: none;"/><g transform="matrix(2.4499998092651367, 0, 0, 2.4499998092651367, -39.5108642578125, -41.917816162109375)"><g id="svgg"><path id="path0" d="M197.197 51.150 C 195.335 51.761,185.258 57.438,160.200 71.993 C 154.260 75.443,143.190 81.828,135.600 86.181 C 116.013 97.415,115.362 97.887,113.708 102.027 C 113.049 103.677,112.986 107.016,112.800 150.000 L 112.600 196.200 111.463 198.515 C 109.964 201.569,108.641 202.521,95.306 210.151 C 89.315 213.579,80.765 218.523,76.306 221.138 C 71.848 223.753,63.700 228.462,58.200 231.603 C 30.461 247.443,30.004 247.776,31.180 251.340 C 32.088 254.091,33.273 254.879,57.000 268.506 C 62.940 271.918,71.130 276.636,75.200 278.992 C 79.270 281.347,88.270 286.524,95.200 290.497 C 102.130 294.470,112.480 300.455,118.200 303.797 C 123.920 307.139,134.360 313.167,141.400 317.191 C 148.440 321.216,157.350 326.349,161.200 328.599 C 192.774 347.052,196.841 349.199,200.211 349.200 C 203.689 349.200,205.971 347.995,239.600 328.401 C 244.770 325.389,253.050 320.625,258.000 317.815 C 286.169 301.825,286.730 301.386,287.600 294.693 C 287.813 293.049,287.981 273.055,287.988 248.373 C 288.003 195.001,286.985 200.252,298.603 193.644 C 301.461 192.018,311.180 186.411,320.200 181.185 C 329.220 175.958,343.080 167.952,351.000 163.392 C 374.058 150.118,374.329 149.408,359.579 140.845 C 354.034 137.626,338.857 128.880,304.000 108.815 C 295.090 103.685,284.584 97.607,280.654 95.307 C 276.724 93.007,265.744 86.662,256.254 81.207 C 246.764 75.752,231.965 67.237,223.367 62.285 C 202.393 50.205,201.384 49.776,197.197 51.150 M121.919 104.324 C 122.734 104.723,126.190 106.675,129.600 108.663 C 133.010 110.651,140.210 114.758,145.600 117.789 C 155.567 123.393,175.815 135.119,196.400 147.207 C 202.670 150.889,213.020 156.823,219.400 160.394 C 225.780 163.964,237.660 170.799,245.800 175.581 C 253.940 180.364,264.920 186.755,270.200 189.783 C 282.257 196.699,283.764 197.805,285.143 200.745 L 286.200 203.000 286.322 246.000 C 286.452 291.694,286.432 292.440,285.061 294.475 C 283.072 297.427,280.892 297.036,272.739 292.266 C 269.583 290.419,263.130 286.742,258.400 284.097 C 253.670 281.451,246.560 277.405,242.600 275.106 C 238.640 272.806,229.820 267.688,223.000 263.731 C 216.180 259.775,206.460 254.101,201.400 251.123 C 196.340 248.145,187.340 243.001,181.400 239.692 C 175.460 236.382,167.180 231.660,163.000 229.199 C 158.820 226.738,149.820 221.472,143.000 217.498 C 116.002 201.766,117.113 202.502,115.527 199.282 L 114.600 197.400 114.492 153.074 C 114.415 122.002,114.513 108.264,114.819 107.128 C 115.722 103.776,118.531 102.667,121.919 104.324 " stroke="none" fill="#cfcfcf" fill-rule="evenodd"/><path id="path1" d="M116.210 104.554 C 114.376 106.388,114.377 106.356,114.492 153.074 L 114.600 197.400 115.527 199.282 C 117.113 202.502,116.002 201.766,143.000 217.498 C 149.820 221.472,158.820 226.738,163.000 229.199 C 167.180 231.660,175.460 236.382,181.400 239.692 C 187.340 243.001,196.340 248.145,201.400 251.123 C 206.460 254.101,216.180 259.775,223.000 263.731 C 229.820 267.688,238.640 272.806,242.600 275.106 C 246.560 277.405,253.670 281.451,258.400 284.097 C 263.130 286.742,269.583 290.419,272.739 292.266 C 280.892 297.036,283.072 297.427,285.061 294.475 C 286.432 292.440,286.452 291.694,286.322 246.000 L 286.200 203.000 285.143 200.745 C 283.764 197.805,282.257 196.699,270.200 189.783 C 264.920 186.755,253.940 180.364,245.800 175.581 C 237.660 170.799,225.780 163.964,219.400 160.394 C 213.020 156.823,202.670 150.889,196.400 147.207 C 175.815 135.119,155.567 123.393,145.600 117.789 C 140.210 114.758,133.010 110.651,129.600 108.663 C 119.869 102.990,118.265 102.498,116.210 104.554 " stroke="none" fill="#bdbdbd" fill-rule="evenodd"/></g></g></svg>